<svg xmlns="http://www.w3.org/2000/svg" version="1.1" xmlns:xlink="http://www.w3.org/1999/xlink" xmlns:svgjs="http://svgjs.dev/svgjs" viewBox="0 0 600 600" opacity="0.84"><path d="M569.2913159948691 569.2913480893819C589.1732053381309 523.4252045448668 266.3385546626751 138.58268160582088 181.88973518432226 107.48032056252663C97.44091570596942 76.37795951923236 -1.9685310103391913 305.7086772418072 62.59839912475195 382.6771818296165C127.16532925984308 459.64568641742574 549.4094266516074 615.1574916338968 569.2913159948691 569.2913480893819C589.1732053381309 523.4252045448668 266.3385546626751 138.58268160582088 181.88973518432226 107.48032056252663 " fill="url(&quot;#ssshape-pattern6&quot;)"></path><path d="M503.2059260470536 442.96962636190824C523.0878153903153 397.10348281739334 200.25316471485957 12.260959878347379 115.80434523650672 -18.841401164946888C31.35552575815386 -49.943762208241154 -68.05392095815473 179.3869555143337 -3.486990823063593 256.35546010214284C61.07993931202755 333.32396468995194 483.3240367037919 488.83576990642337 503.2059260470536 442.96962636190824C523.0878153903153 397.10348281739334 200.25316471485957 12.260959878347379 115.80434523650672 -18.841401164946888 " fill-opacity="1" fill="none" opacity="1" stroke-opacity="1" stroke-width="10" stroke="#606c38" transform="matrix(1.05,0,0,1.05,61.765619659423805,60.661584281921364)"></path><defs><pattern id="ssshape-pattern6" width="40" height="40" patternUnits="userSpaceOnUse">
  <rect width="100%" height="100%" fill="#bc6c25"></rect>
  <polygon points="30 22 38 38 22 38" fill="hsl(340, 45%, 25%)"></polygon>
  <polygon transform="translate(11.000000, 10.000000) scale(1, -1) translate(-11.000000, -10.000000) " points="11 2 19 18 3 18" fill="hsl(340, 45%, 25%)" fill-opacity="0.5"></polygon>
</pattern></defs></svg>